PathFileType	3	(X/Y/Z)	D:\Jess\Healthy\Labelled\HA28\20251211\SRRun01.trc
DataRate	CameraRate	NumFrames	NumMarkers	Units	OrigDataRate	OrigDataStartFrame	OrigNumFrames
250.0	250.0	4	37	mm	250.0	36875	2501
Frame#	Time	C7			T10			CLAV			LSHO			RSHO			LASIS			RASIS			LPSIS			RPSIS			LILCR			RILCR			LGTR			LTHI			LLTHI			LLEP			LMEP			LPSH			LLSH			LDSH			LLMAL			LMMAL			LTOE			L5TH			LHEE			RGTR			RTHI			RLTHI			RLEP			RMEP			RPSH			RLSH			RDSH			RLMAL			RMMAL			RTOE			R5TH			RHEE			
		X1	Y1	Z1	X2	Y2	Z2	X3	Y3	Z3	X4	Y4	Z4	X5	Y5	Z5	X6	Y6	Z6	X7	Y7	Z7	X8	Y8	Z8	X9	Y9	Z9	X10	Y10	Z10	X11	Y11	Z11	X12	Y12	Z12	X13	Y13	Z13	X14	Y14	Z14	X15	Y15	Z15	X16	Y16	Z16	X17	Y17	Z17	X18	Y18	Z18	X19	Y19	Z19	X20	Y20	Z20	X21	Y21	Z21	X22	Y22	Z22	X23	Y23	Z23	X24	Y24	Z24	X25	Y25	Z25	X26	Y26	Z26	X27	Y27	Z27	X28	Y28	Z28	X29	Y29	Z29	X30	Y30	Z30	X31	Y31	Z31	X32	Y32	Z32	X33	Y33	Z33	X34	Y34	Z34	X35	Y35	Z35	X36	Y36	Z36	X37	Y37	Z37	

1876	147.496	837.1497674265999	1365.791047982332	-610.0007707783467	838.9075320682351	1120.84865348201	-501.2985038479412	830.087931596742	1256.250506923035	-743.0654642054319	676.2101326599367	1332.769316895434	-664.69065890406	991.9176815879537	1327.324812858844	-679.0388354995243	729.3306122967482	878.5869009437826	-711.6534503238373	962.139069016887	907.6587098529361	-697.5398617543599	807.289447168469	922.7247435901421	-532.4647611322814	848.3538079146382	930.3610148954003	-530.4875896272433	686.4086513710168	943.1517046981406	-645.0456873156197	981.2088853786787	964.2769800559809	-627.6610836004853	662.7412087886511	775.7684538482039	-641.3712790610158	728.9993866327094	667.3592969084657	-776.4627722167276	664.8897365381885	564.8230024312982	-701.0653693709668	670.8986359508059	450.9391672838912	-735.8353952959449	nan	nan	nan	710.5679663308324	352.944899238518	-722.537261529485	665.7690899588838	379.7034752426786	-581.4657503062006	717.4818726369905	271.1574755907124	-537.1522992687604	699.0936780190625	266.5879937101948	-418.0720121196281	nan	nan	nan	674.4949131979804	141.0076620740941	-431.486526278226	660.6231952999686	168.7123744614173	-387.9787341092941	769.6769047666271	307.5136218704528	-367.8495375352225	1020.60960933701	810.7640110865236	-634.9724500704554	926.2433131690419	673.5072939678364	-730.6100576955756	959.2534915748236	559.0181089012344	-657.1548037120725	930.4543730647007	426.6573093015469	-640.2936819011667	nan	nan	nan	867.4393316907334	352.3718608320266	-655.0890437968969	931.8279540772228	287.2915340867056	-559.9876899702982	867.6996868759863	177.7045395731588	-544.8702364353752	890.2429841977932	119.9757551278124	-450.2172069443356	nan	nan	nan	882.4162531737592	54.51109553991517	-560.7829825747294	916.7516576769484	38.87018113001505	-515.830170478853	837.0365990229615	99.85959165587118	-366.4366068142062	
1877	147.5	837.6745806085328	1367.883614576164	-610.1221939800805	840.879513604663	1123.160176674213	-501.3757144037818	828.355686663839	1258.530217876926	-743.0286891495466	675.9608109703657	1335.308960362677	-662.1118221795451	991.045944982976	1329.84819279214	-681.789895552051	728.7748319246435	881.2238658043269	-710.690403820439	961.9164920426767	908.5775151246678	-697.4583890297599	807.6780075398398	925.0425187570764	-531.9168565955706	848.7726893939223	932.4586403497489	-530.1331464755684	686.3544589945119	945.8851466637594	-643.8408900409088	981.2294028957009	965.5193179409564	-627.7541174006358	662.1923145471925	778.7273269492662	-640.1443318379422	729.5868425462529	671.4986215211942	-776.9933139374969	665.2960980800087	568.1191755576781	-704.0912256134286	671.9402446245062	454.4739816970134	-740.7840830490176	nan	nan	nan	712.0913123850175	356.3078485796904	-729.5575618989916	666.5099654389313	379.265554937844	-588.0939800236331	718.7385833560414	269.8182865930377	-546.0574774198323	699.8034699691912	261.8781908481843	-427.1348526356043	nan	nan	nan	676.0036797851515	136.6894886169766	-444.4278717107944	661.8065182247151	162.8900886871027	-400.0821544876575	769.8982361502102	301.7339282590548	-375.2922922913098	1020.128829113329	811.8023597251278	-634.1608527866123	925.6923299716572	673.2698622460214	-727.4404961740786	959.543835890178	559.9505766908624	-652.0484410973474	931.1769336445939	427.4529552779847	-632.8650255124811	nan	nan	nan	868.3802233732791	352.8983536889854	-647.3113547512841	932.4312977697471	288.5436940944124	-551.4863657711244	868.2608529558003	178.8537712087972	-536.0826816123797	890.7078233901524	121.5248928242868	-441.2191002727486	nan	nan	nan	882.4410132290777	54.49922332810494	-550.725725795539	916.8315096312573	39.06537192439675	-505.7702627486965	837.4161135985029	102.6022224591978	-357.4713289990021	
1878	147.504	838.1692454570033	1370.13504845541	-610.2434372376756	842.8955107334272	1125.604975983388	-501.5560400170568	826.5936372534601	1261.050087419779	-742.9941536316202	675.7268571169889	1338.032068405257	-659.5240159121455	990.1163639074083	1332.573322783718	-684.4858805042502	728.1573777961499	884.037750419761	-709.7651867527006	961.6431676893465	909.6274726700378	-697.5050622872923	808.1006863438702	927.5046101260223	-531.4481018402357	849.2250381287366	934.6977472273234	-529.8730355914425	686.2907917346316	948.7410488578512	-642.6097267170119	981.2333448891266	966.9109023107327	-628.021118903766	661.600106313508	781.8684087188307	-638.9555552632678	730.1503052821701	675.7906259626047	-777.4126181744725	665.8085685703435	571.6210663054891	-706.9385538580392	673.0769318014552	458.210987139463	-745.4574050880605	nan	nan	nan	713.68008421391	359.8927018491641	-736.4206778035997	667.3549277051397	378.858559643115	-594.5939820656033	720.0150115403752	268.4891250652495	-555.0164011828639	700.549613130096	257.0411534279932	-436.3614827326562	nan	nan	nan	677.5013206527362	132.400265750517	-457.6260448142304	662.9990231022484	157.0382683962379	-412.4751379387114	770.1770939371354	295.6968131095144	-382.9173873374693	1019.634464212261	812.9880556760027	-633.4993386206359	925.168494930056	673.168826689668	-724.294242760618	959.8293389964062	561.0607917405636	-646.7853364206582	931.9247398269057	428.5195517105633	-625.3463822393837	nan	nan	nan	869.3982017808404	353.6720882362563	-639.5140333142892	933.0975795160168	290.0619643879137	-542.9475826615112	868.876880754015	180.1921929739418	-527.3765513701229	891.2086669469253	123.2033914281435	-432.3482005735545	nan	nan	nan	882.486943235415	54.52730315189855	-540.708988081319	916.9219119641127	39.29100709586949	-495.7480424740019	837.8338550069888	105.5480850978846	-348.666976723274	
1879	147.508	838.6352821057842	1372.531612134334	-610.367231185817	844.9513197445273	1128.16953791641	-501.8397008129754	824.8080902704032	1263.789871735044	-742.9620023937788	675.5138613541028	1340.918742911139	-656.939064304528	989.1345502962802	1335.48153209118	-687.1204821116565	727.4916181491885	887.0163323564086	-708.8785820544884	961.3231606634865	910.8014798154023	-697.6781141298169	808.5515451909796	930.1017103699858	-531.0610829895568	849.7042588713756	937.0700090150148	-529.7108362589026	686.2208266701807	951.7136488864136	-641.3611165210419	981.2150860346519	968.4482463565863	-628.4698597583142	660.9720687283462	785.175431139744	-637.8189335433437	730.683395198358	680.2174244186814	-777.7301811182164	666.4242604132432	575.3050675923831	-709.6017336099759	674.3028137821827	462.1218497505781	-749.846055421076	nan	nan	nan	715.3281585362818	363.6779850036272	-743.1104845288908	668.302501232738	378.474568953974	-600.9626001356477	721.3089750315918	267.1727652005645	-564.0272948275281	701.3348511981198	252.0938454866238	-445.761257080754	nan	nan	nan	678.9833687825583	128.1660336230704	-471.0771523922085	664.1972817840673	151.1875465767542	-425.1599477097465	770.5185125137551	289.4162562550498	-390.7426212790124	1019.13206978011	814.314183659689	-632.9751284807962	924.6755661254426	673.2116198848554	-721.1784479258993	960.1050577532936	562.3500280520485	-641.4006712374403	932.6907466488462	429.8619383095803	-617.7699047748187	nan	nan	nan	870.484303683294	354.6968220261413	-631.7140387922117	933.8264142776915	291.8488192041758	-534.4037143513677	869.5509204101776	181.7238725146717	-518.7716201014409	891.7499363421178	125.0113972974507	-423.6230443612743	nan	nan	nan	882.5591762526858	54.59210070141675	-530.7451587416316	917.0252873897193	39.54711133973805	-485.7719986163414	838.2947359861897	108.7021876844616	-340.0432065279726	
